<svg width="19" height="19" viewBox="0 0 19 19" fill="none" xmlns="http://www.w3.org/2000/svg">
<path fill-rule="evenodd" clip-rule="evenodd" d="M9.50379 0.317749C14.5771 0.317749 18.6914 4.43207 18.6914 9.50535C18.6914 14.5786 14.5771 18.6929 9.50379 18.6929C4.43051 18.6929 0.316193 14.5786 0.316193 9.50535C0.316193 4.43207 4.43051 0.317749 9.50379 0.317749ZM7.59587 12.4895L5.34652 10.2383C4.96331 9.8549 4.96323 9.22962 5.34652 8.84626C5.72989 8.46297 6.35795 8.46537 6.73853 8.84626L8.32431 10.4333L12.2692 6.4884C12.6526 6.10503 13.2779 6.10503 13.6612 6.4884C14.0446 6.87169 14.044 7.49758 13.6612 7.88041L9.01919 12.5224C8.63637 12.9052 8.01047 12.9058 7.62718 12.5224C7.61641 12.5116 7.60602 12.5007 7.59587 12.4895Z" fill="#00BA00"/>
</svg>
