<svg width="30" height="30" viewBox="0 0 30 30" fill="none" xmlns="http://www.w3.org/2000/svg">
<circle cx="15" cy="15" r="15" fill="white"/>
<path d="M23.0742 15.8408V15.8333C23.0732 15.8263 23.0718 15.8193 23.07 15.8125C23.06 15.7525 23.0483 15.6942 23.0342 15.635C23.0293 15.6149 23.0232 15.5951 23.0158 15.5758C22.9799 15.4189 22.9317 15.2651 22.8717 15.1158L21.2242 11.2692C20.8075 10.295 20.4125 9.37499 18.3508 9.37499C18.1851 9.37499 18.0261 9.44084 17.9089 9.55805C17.7917 9.67526 17.7258 9.83423 17.7258 9.99999C17.7258 10.1658 17.7917 10.3247 17.9089 10.4419C18.0261 10.5591 18.1851 10.625 18.3508 10.625C19.5883 10.625 19.7008 10.8883 20.075 11.7617L21.5525 15.2083H19.2042C18.6733 15.2201 18.155 15.3717 17.7014 15.6478C17.2478 15.9239 16.8751 16.3147 16.6208 16.7808C16.4553 17.0633 16.2188 17.2975 15.9348 17.4603C15.6507 17.6231 15.329 17.7087 15.0017 17.7087C14.6743 17.7087 14.3526 17.6231 14.0686 17.4603C13.7845 17.2975 13.548 17.0633 13.3825 16.7808C13.128 16.3149 12.7552 15.9243 12.3017 15.6484C11.8482 15.3725 11.3299 15.221 10.7992 15.2092H8.44749L9.92499 11.7617C10.2992 10.8883 10.4117 10.625 11.6492 10.625C11.8149 10.625 11.9739 10.5591 12.0911 10.4419C12.2083 10.3247 12.2742 10.1658 12.2742 9.99999C12.2742 9.83423 12.2083 9.67526 12.0911 9.55805C11.9739 9.44084 11.8149 9.37499 11.6492 9.37499C9.58749 9.37499 9.19332 10.2917 8.77582 11.2692L7.12749 15.1167C7.0673 15.2656 7.01909 15.4192 6.98332 15.5758C6.97499 15.595 6.97166 15.6158 6.96416 15.6358C6.95082 15.6942 6.93916 15.7525 6.92916 15.8125C6.92868 15.8194 6.92868 15.8264 6.92916 15.8333V15.8408C6.89838 16.0078 6.88138 16.1769 6.87832 16.3467V20C6.82948 20.4219 6.8766 20.8494 7.01616 21.2505C7.15572 21.6517 7.38411 22.0161 7.68427 22.3166C7.98444 22.6171 8.34861 22.8458 8.7496 22.9858C9.15059 23.1258 9.57803 23.1734 9.99999 23.125H20C20.4222 23.1739 20.85 23.1268 21.2514 22.987C21.6529 22.8473 22.0175 22.6186 22.318 22.318C22.6186 22.0175 22.8473 21.6529 22.987 21.2514C23.1268 20.85 23.1739 20.4222 23.125 20V16.3467C23.1219 16.1769 23.1049 16.0078 23.0742 15.8408ZM20 21.875H9.99999C8.68582 21.875 8.12499 21.3142 8.12499 20V16.4583H10.7958C11.1083 16.4714 11.412 16.5663 11.6762 16.7336C11.9405 16.9009 12.1562 17.1347 12.3017 17.4117C12.5775 17.8824 12.9716 18.2727 13.445 18.544C13.9183 18.8152 14.4544 18.9579 15 18.9579C15.5456 18.9579 16.0816 18.8152 16.555 18.544C17.0283 18.2727 17.4225 17.8824 17.6983 17.4117C17.8436 17.1345 18.0592 16.9005 18.3235 16.733C18.5878 16.5655 18.8915 16.4705 19.2042 16.4575H21.8708V20C21.875 21.3142 21.3142 21.875 20 21.875ZM12.8917 12.1083C12.7813 11.9898 12.7212 11.8331 12.724 11.6712C12.7269 11.5093 12.7925 11.3548 12.907 11.2403C13.0215 11.1258 13.176 11.0602 13.3379 11.0573C13.4998 11.0545 13.6565 11.1146 13.775 11.225L14.375 11.8242V6.66666C14.375 6.5009 14.4408 6.34193 14.558 6.22471C14.6753 6.1075 14.8342 6.04166 15 6.04166C15.1657 6.04166 15.3247 6.1075 15.4419 6.22471C15.5591 6.34193 15.625 6.5009 15.625 6.66666V11.8242L16.225 11.225C16.3435 11.1146 16.5002 11.0545 16.6621 11.0573C16.824 11.0602 16.9785 11.1258 17.093 11.2403C17.2075 11.3548 17.2731 11.5093 17.276 11.6712C17.2788 11.8331 17.2187 11.9898 17.1083 12.1083L15.4417 13.775C15.3244 13.8918 15.1655 13.9574 15 13.9574C14.8344 13.9574 14.6756 13.8918 14.5583 13.775L12.8917 12.1083Z" fill="black"/>
</svg>
