<svg width="19" height="19" viewBox="0 0 19 19" fill="none" xmlns="http://www.w3.org/2000/svg">
<g clip-path="url(#clip0_2_199)">
<path d="M9.5037 19.0074C14.7525 19.0074 19.0074 14.7525 19.0074 9.5037C19.0074 4.25495 14.7525 0 9.5037 0C4.25495 0 0 4.25495 0 9.5037C0 14.7525 4.25495 19.0074 9.5037 19.0074Z" fill="#FFBB33"/>
<path d="M9.50001 2.84988C7.66412 2.84988 6.00159 3.59458 4.79809 4.79808C3.59458 6.00158 2.84988 7.66411 2.84988 9.5C2.84988 11.3359 3.59458 12.9984 4.79809 14.2019C6.00159 15.4054 7.66412 16.1501 9.50001 16.1501C11.3359 16.1501 12.9984 15.4054 14.2019 14.2019C15.4054 12.9984 16.1501 11.3359 16.1501 9.5C16.1501 7.66411 15.4054 6.00158 14.2019 4.79808C12.9984 3.59458 11.3359 2.84988 9.50001 2.84988ZM5.46974 5.46973C6.50124 4.43824 7.92634 3.80002 9.50001 3.80002C11.0737 3.80002 12.4988 4.43824 13.5303 5.46973C14.5618 6.50123 15.2 7.92633 15.2 9.5C15.2 11.0737 14.5618 12.4988 13.5303 13.5303C12.4988 14.5618 11.0737 15.2 9.50001 15.2C7.92634 15.2 6.50124 14.5618 5.46974 13.5303C4.43825 12.4988 3.80003 11.0737 3.80003 9.5C3.80003 7.92633 4.43825 6.50123 5.46974 5.46973Z" fill="white"/>
<path fill-rule="evenodd" clip-rule="evenodd" d="M9.97531 11.5151V9.99706V9.67134V7.90389V7.71483V7.3891V5.87109C9.97531 5.60977 9.76168 5.39602 9.50035 5.39602C9.23903 5.39602 9.02539 5.61134 9.02539 5.87109V7.3891V7.71483V7.90389V9.67212V9.99706V11.5151C9.02539 11.7752 9.23903 11.9901 9.50035 11.9901C9.76168 11.9901 9.97531 11.7764 9.97531 11.5151Z" fill="white"/>
<path d="M9.5037 13.5992C9.76397 13.5992 9.97496 13.3882 9.97496 13.1279C9.97496 12.8676 9.76397 12.6566 9.5037 12.6566C9.24343 12.6566 9.03244 12.8676 9.03244 13.1279C9.03244 13.3882 9.24343 13.5992 9.5037 13.5992Z" fill="white"/>
</g>
<defs>
<clipPath id="clip0_2_199">
<rect width="19" height="19" fill="white"/>
</clipPath>
</defs>
</svg>
