<svg width="16" height="16" viewBox="0 0 16 16" fill="none" xmlns="http://www.w3.org/2000/svg">
<g clip-path="url(#clip0_2_46)">
<path d="M8.01669 15.0539C6.86172 15.0539 5.71203 14.773 4.67487 14.2189C3.02497 13.3286 1.81691 11.8549 1.27309 10.069C1.26394 10.0389 1.27587 10.0067 1.30222 9.98985C1.32856 9.97276 1.363 9.97563 1.38634 9.99635C3.65778 12.0158 4.70097 12.0259 5.70997 12.0355C6.79234 12.0459 7.91172 12.0567 10.4649 14.5121C10.4824 14.5287 10.4898 14.5532 10.4849 14.5768C10.4799 14.6004 10.4632 14.6199 10.4404 14.6281C9.65575 14.9129 8.83478 15.0539 8.01669 15.0539ZM1.48469 10.2686C2.05003 11.9108 3.19853 13.2637 4.74106 14.0959C6.44466 15.006 8.4595 15.1639 10.2862 14.5344C7.83206 12.1956 6.80034 12.1857 5.70866 12.1751C4.70291 12.1655 3.66381 12.1554 1.48469 10.2686ZM11.1643 14.3108C11.1458 14.3108 11.1277 14.3036 11.1143 14.2899C8.80384 11.9221 6.75553 11.3444 4.94831 10.8345C3.4485 10.4113 2.15319 10.0459 1.01528 8.77466C1.00553 8.7636 0.999375 8.74988 0.997937 8.7352C0.905281 7.85801 0.978906 6.9772 1.21666 6.1171C1.22603 6.08291 1.25816 6.06126 1.29403 6.06654C3.70341 6.41388 5.09516 7.81757 6.32297 9.05607C8.22803 10.9773 9.87362 12.6373 14.5843 10.2378C14.6098 10.225 14.6403 10.2286 14.6618 10.2474C14.6834 10.2662 14.6913 10.296 14.6819 10.323C14.5588 10.6781 14.411 11.0129 14.2302 11.3465C13.536 12.6318 12.4867 13.6544 11.1957 14.3033C11.1857 14.3084 11.175 14.3108 11.1643 14.3108ZM1.13456 8.69813C2.24187 9.92582 3.51409 10.2847 4.98625 10.7C6.80094 11.212 8.85659 11.7919 11.1783 14.1555C12.4228 13.5184 13.4349 12.5249 14.1073 11.2801C14.2563 11.0049 14.3825 10.7291 14.4906 10.4414C9.80947 12.7704 8.14622 11.0936 6.22381 9.15429C4.96316 7.88279 3.65987 6.56848 1.33522 6.21388C1.117 7.03088 1.04947 7.8662 1.13456 8.69813ZM11.7756 10.4963C9.90228 10.4963 8.15159 9.19645 6.43862 7.9247C4.85144 6.74635 3.21028 5.52782 1.53909 5.44382C1.51622 5.44263 1.4955 5.43032 1.48337 5.41107C1.47122 5.39182 1.46941 5.36776 1.47831 5.34679C1.59844 5.06348 1.69844 4.85257 1.80269 4.66266C2.38609 3.57051 3.25256 2.65023 4.30787 2.0027C4.32737 1.99066 4.35134 1.98945 4.37203 1.99788C4.39297 2.00704 4.40812 2.02557 4.41281 2.0477C5.36775 6.57376 7.35347 6.33229 9.86672 6.02754C11.3852 5.84338 13.1065 5.6342 14.876 6.45676C14.8959 6.46591 14.9103 6.4842 14.9149 6.5056C15.0969 7.36476 15.1229 8.2287 14.9924 9.07388C14.9899 9.09001 14.9819 9.1047 14.9699 9.11526C13.8594 10.1083 12.7991 10.4963 11.7756 10.4963ZM1.64584 5.31045C3.32394 5.43801 4.94916 6.64476 6.52194 7.81251C9.12053 9.74191 11.8071 11.7368 14.8582 9.02792C14.9801 8.2186 14.9557 7.39173 14.7855 6.5687C13.0633 5.78057 11.3748 5.98545 9.88363 6.16623C7.41913 6.46545 5.28787 6.72445 4.29706 2.17407C3.30084 2.80573 2.48216 3.68726 1.92559 4.72935C1.83469 4.89473 1.74706 5.0767 1.64584 5.31045ZM14.5741 5.66045C14.5666 5.66045 14.5592 5.65926 14.5518 5.65682C13.2694 5.2257 11.858 5.28104 10.4935 5.33473C7.85287 5.43848 5.35875 5.5367 4.98069 1.68441C4.97778 1.65504 4.99381 1.62713 5.02053 1.61435C7.03056 0.668102 9.39975 0.734039 11.3579 1.79082C12.8749 2.60351 14.0404 3.94432 14.6397 5.56632C14.6489 5.5916 14.6429 5.62001 14.6241 5.63926C14.6108 5.65298 14.5926 5.66045 14.5741 5.66045ZM11.8767 5.15876C12.7536 5.15876 13.6274 5.22401 14.457 5.47941C13.8558 3.95035 12.7364 2.68776 11.292 1.91407C11.2918 1.91407 11.2918 1.91407 11.2917 1.91385C9.38656 0.885508 7.08512 0.814008 5.12478 1.72007C5.50537 5.39135 7.81463 5.29938 10.4879 5.19516C10.9476 5.17707 11.4127 5.15876 11.8767 5.15876Z" fill="#131414"/>
<path d="M7.69846 15.0515C7.6974 15.0515 7.69618 15.0515 7.69512 15.0515C6.63171 15.0003 5.61562 14.72 4.67502 14.2189C4.55634 14.1531 4.42299 14.079 4.29962 13.9993C4.27893 13.9858 4.2669 13.9627 4.26774 13.9381C4.26855 13.9136 4.28227 13.8912 4.30371 13.8794C4.55827 13.7388 4.77793 13.5831 4.93909 13.4288C5.2714 13.1117 6.07049 12.8912 6.64955 12.956C6.90015 12.9844 7.07768 13.0674 7.1629 13.1962C7.7038 14.0327 7.88399 14.5719 7.7659 15.0002C7.75743 15.0308 7.72977 15.0515 7.69846 15.0515ZM4.47387 13.9432C4.5644 13.9976 4.65718 14.0491 4.74177 14.0961C5.64593 14.5778 6.62243 14.8514 7.64393 14.909C7.71855 14.5332 7.53187 14.0244 7.04587 13.2728C6.98459 13.1802 6.84209 13.1185 6.63387 13.0949C6.09946 13.0348 5.33734 13.2418 5.03559 13.5299C4.88827 13.6709 4.69559 13.8125 4.47387 13.9432ZM11.8769 13.8917C11.8665 13.8917 11.856 13.8895 11.8464 13.8847C11.3344 13.6351 10.8172 13.2759 10.864 12.5039C10.868 12.4319 10.9024 12.3699 10.9632 12.3248C11.2643 12.1007 12.2098 12.3258 12.2497 12.3354C12.4317 12.385 12.8019 12.4808 13.2603 12.5723C13.2849 12.5773 13.305 12.5952 13.3129 12.619C13.3208 12.6428 13.3151 12.6693 13.2983 12.6878C12.8704 13.1592 12.4051 13.5605 11.9151 13.8804C11.9035 13.8878 11.8903 13.8917 11.8769 13.8917ZM11.4102 12.3653C11.2508 12.3653 11.1162 12.385 11.0464 12.437C11.0185 12.4577 11.0051 12.4809 11.0035 12.5121C10.9628 13.1837 11.3919 13.5027 11.8719 13.7415C12.3081 13.4526 12.7244 13.0976 13.1112 12.6847C12.7052 12.6002 12.3804 12.5158 12.2149 12.4707C11.9961 12.418 11.6701 12.3653 11.4102 12.3653ZM4.54802 10.096C4.48002 10.096 4.40768 10.0866 4.33377 10.0674C4.14684 10.0158 3.6878 9.69929 3.28265 9.41982C3.05434 9.26213 2.83862 9.11335 2.73174 9.05488C2.29784 8.82016 2.06387 8.63288 1.85734 8.46776C1.61793 8.27613 1.42874 8.12498 1.00915 7.97644C0.981242 7.96657 0.962585 7.9401 0.962585 7.91048C0.962585 7.5831 0.992679 7.23669 1.0544 6.85132C1.06043 6.81376 1.09605 6.78776 1.13349 6.79329C1.69171 6.87513 2.21755 7.00994 2.4418 7.1291L2.67277 7.25548C3.09009 7.4851 3.31996 7.61147 3.91105 7.79491C4.33112 7.92685 4.60146 8.18585 4.56859 8.42441C4.55487 8.52457 4.46074 8.75901 3.88552 8.77682C3.7984 8.78066 3.77959 8.79848 3.77949 8.79848C3.7854 8.86707 4.13346 9.11601 4.31412 9.18701C5.03505 9.47251 4.99837 9.77701 4.96996 9.86369C4.92199 10.01 4.75515 10.096 4.54802 10.096ZM1.10259 7.8616C1.51265 8.01301 1.7134 8.17357 1.94474 8.35869C2.14659 8.52023 2.3754 8.70316 2.79859 8.93207C2.91221 8.99419 3.12068 9.13813 3.36212 9.30473C3.73837 9.56423 4.20668 9.88751 4.37002 9.93229C4.61399 9.99679 4.8033 9.9241 4.83727 9.8201C4.87712 9.69854 4.71499 9.49585 4.2629 9.31698C4.19827 9.29148 3.6079 8.98935 3.64474 8.76888C3.65834 8.68751 3.73768 8.64319 3.88043 8.63719C4.20152 8.62732 4.41193 8.53851 4.43024 8.40538C4.44949 8.26554 4.25946 8.05082 3.86949 7.92829C3.26502 7.74076 3.0308 7.61198 2.60559 7.37776L2.3758 7.2521C2.17709 7.14666 1.69249 7.02126 1.18171 6.94179C1.13121 7.27354 1.10534 7.57563 1.10259 7.8616ZM12.8553 9.35673C12.7122 9.35673 12.6061 9.31676 12.53 9.26813C12.3333 9.14248 12.2596 8.90779 12.2737 8.7311C12.2842 8.60016 12.3384 8.50432 12.4221 8.46823C12.8681 8.26769 13.1004 8.13266 13.1117 8.06744C13.1145 8.05154 13.0734 8.01182 13.0435 7.98294C12.976 7.91794 12.8834 7.82863 12.8628 7.68254C12.842 7.53354 12.8771 7.40691 12.9675 7.30654C13.241 7.00226 13.9593 7.02632 14.389 7.03957C14.463 7.04219 14.5289 7.04294 14.5776 7.04416C14.6941 7.04416 14.8174 7.04416 14.9406 7.03716C14.9806 7.03716 15.0092 7.06194 15.0138 7.09807C15.058 7.44494 15.077 7.78704 15.0701 8.11463C15.0696 8.14498 15.0495 8.17144 15.0205 8.1801C14.8748 8.22366 14.7442 8.28676 14.6212 8.37291C14.4541 8.4916 14.3374 8.58257 14.2332 8.66394C14.037 8.81704 13.882 8.93813 13.5186 9.14491C13.2395 9.30257 13.0223 9.35673 12.8553 9.35673ZM14.0573 7.17266C13.6876 7.17266 13.2447 7.20707 13.0714 7.39991C13.0091 7.46926 12.9861 7.55541 13.0012 7.66329C13.0151 7.76148 13.0787 7.82313 13.1405 7.88232C13.2016 7.94132 13.2649 8.00244 13.2494 8.09126C13.2301 8.20273 13.1015 8.3161 12.4786 8.59607C12.4505 8.6081 12.4199 8.65794 12.4131 8.74219C12.4023 8.87748 12.4575 9.0561 12.6052 9.15048C12.7379 9.23498 12.992 9.28213 13.4497 9.02335C13.8039 8.82163 13.9553 8.70344 14.1471 8.55394C14.2527 8.47138 14.3708 8.37919 14.5406 8.25857C14.6625 8.17335 14.7906 8.10885 14.9313 8.06166C14.9348 7.77641 14.9186 7.48032 14.8831 7.17966C14.7778 7.18376 14.6735 7.18376 14.5741 7.18376C14.5231 7.18376 14.4585 7.18182 14.3844 7.17941C14.2911 7.17629 14.1781 7.17266 14.0573 7.17266ZM10.6456 8.67332C9.49487 8.67354 7.32727 8.27057 6.83187 7.89651C5.79255 7.11054 5.9673 6.69604 6.04568 6.58769C6.2024 6.37057 6.58984 6.38285 6.92755 6.6161C7.80512 7.21935 8.48827 7.22441 9.21143 7.22969C9.76555 7.23379 10.3386 7.23813 11.0352 7.50291C11.3174 7.60979 11.4676 7.94751 11.4659 8.2111C11.4645 8.40754 11.3815 8.55485 11.2439 8.60491C11.1194 8.65238 10.9091 8.67332 10.6456 8.67332ZM6.40015 6.57351C6.29037 6.57351 6.20324 6.60816 6.15893 6.66957C6.03255 6.84432 6.2178 7.25694 6.91612 7.78482C7.48805 8.21716 10.5674 8.71351 11.1953 8.47401C11.3121 8.43141 11.3256 8.27516 11.3261 8.21016C11.3276 7.99376 11.2088 7.71813 10.9856 7.63341C10.3125 7.37776 9.75215 7.37344 9.21043 7.3696C8.46515 7.36404 7.76115 7.35876 6.84834 6.73119H6.84821C6.68987 6.62163 6.5294 6.57351 6.40015 6.57351ZM4.08234 5.71123C3.78805 5.71123 3.27293 5.58054 2.94624 5.34244C2.73427 5.18791 2.62343 5.00279 2.62571 4.80732C2.62862 4.56369 2.6959 4.32635 2.7609 4.09673C2.84662 3.79413 2.92759 3.50816 2.82746 3.28548C2.81602 3.25994 2.82071 3.23035 2.83962 3.20966C3.06602 2.96194 3.31312 2.72919 3.57384 2.51782C3.6014 2.49519 3.64146 2.49735 3.66674 2.52216C3.9844 2.83291 4.23184 3.24479 4.32849 3.62394C4.35968 3.74863 4.41818 3.86851 4.4698 3.97441C4.55621 4.15135 4.63084 4.30419 4.56971 4.44116C4.52843 4.5341 4.43405 4.5986 4.2729 4.64457C4.05612 4.70669 3.88496 4.62554 3.78302 4.57716C3.76568 4.56897 3.74427 4.55863 3.72802 4.55238C3.72562 4.57188 3.7243 4.60894 3.72946 4.67707C3.73993 4.82054 3.83874 4.90576 3.95321 5.00422C4.10259 5.13276 4.28865 5.29285 4.28865 5.62554C4.28865 5.65563 4.2694 5.68232 4.24087 5.69172C4.20174 5.70497 4.14746 5.71123 4.08234 5.71123ZM2.97249 3.27151C3.06649 3.53029 2.98321 3.82441 2.89534 4.13473C2.83287 4.35573 2.76824 4.58391 2.76549 4.80901C2.76368 4.95944 2.85227 5.10101 3.02859 5.22954C3.36859 5.47726 3.92802 5.59401 4.14674 5.56944C4.12855 5.33954 3.9988 5.22785 3.86196 5.11013C3.73546 5.00132 3.60477 4.88869 3.59005 4.68741C3.57984 4.55263 3.58559 4.46644 3.64518 4.42551C3.70415 4.38557 3.77155 4.41732 3.8428 4.45079C3.93765 4.49607 4.06777 4.55766 4.23471 4.51026C4.34965 4.47729 4.41946 4.43491 4.44209 4.38438C4.47662 4.30688 4.41524 4.18119 4.34412 4.03557C4.28946 3.92363 4.22762 3.79676 4.19296 3.6581C4.1069 3.3206 3.89193 2.95401 3.61305 2.6661C3.3869 2.85313 3.1718 3.05657 2.97249 3.27151ZM7.78996 4.4566C7.58799 4.4566 7.41299 4.4181 7.28624 4.31963C7.13977 4.20601 7.07165 4.02354 7.08368 3.77751C7.1004 3.40269 7.62649 3.32954 8.01068 3.27607C8.1639 3.25466 8.3223 3.23276 8.37202 3.19904C8.47974 3.12707 8.53199 3.03391 8.51234 2.94916C8.48696 2.83988 8.35165 2.75876 8.15055 2.73229C8.02815 2.71182 7.59065 2.71182 7.16743 2.71182C7.15515 2.71182 5.92952 2.68172 5.83418 2.30691C5.79665 2.15885 5.92687 2.00626 6.23271 1.83991L6.29299 1.80694C6.50087 1.69332 6.6803 1.5951 6.68199 1.52432C6.68284 1.48607 6.63299 1.40951 6.39037 1.26219C6.36618 1.24751 6.35327 1.21957 6.35774 1.19166C6.36221 1.16351 6.38302 1.1411 6.41071 1.13438C8.09121 0.738412 9.84812 0.971662 11.358 1.79082C11.8578 2.05779 12.3278 2.38782 12.7551 2.77151C12.7781 2.79223 12.7848 2.82566 12.7714 2.8536C12.7582 2.88151 12.7282 2.89716 12.6975 2.8926C12.5665 2.87188 12.4383 2.84398 12.3055 2.80716C11.2676 2.52551 11.0696 2.56257 11.0435 2.60929C11.0332 2.62854 11.0151 2.75444 11.6861 3.35866C11.7048 3.37551 11.7666 3.41785 11.8381 3.46697C12.384 3.84132 12.6884 4.09601 12.6287 4.29123C12.5854 4.43276 12.3786 4.45057 12.2268 4.45154C11.8731 4.45154 11.5352 4.34466 11.1773 4.23129C10.7817 4.1061 10.3727 3.9766 9.89946 3.9766C9.76187 3.9766 9.4948 4.05891 9.18562 4.15426C8.73249 4.29385 8.20462 4.4566 7.78996 4.4566ZM6.60355 1.23454C6.75893 1.34576 6.8238 1.43482 6.82174 1.52751C6.81827 1.67891 6.64577 1.77329 6.36005 1.92951L6.29962 1.96247C5.96634 2.14376 5.96284 2.24557 5.96971 2.27251C6.01918 2.46726 6.84196 2.57219 7.16743 2.57219C7.61599 2.57219 8.03968 2.57219 8.17112 2.5941C8.42999 2.62829 8.60934 2.74935 8.64846 2.91763C8.6818 3.06135 8.60765 3.20988 8.44999 3.31485C8.3738 3.3666 8.22202 3.38779 8.02993 3.41451C7.69437 3.46123 7.23484 3.52501 7.22327 3.78401C7.2134 3.98501 7.26205 4.12391 7.37193 4.20935C7.70184 4.46548 8.53546 4.20841 9.14449 4.02063C9.46452 3.92216 9.7409 3.83694 9.89952 3.83694C10.3943 3.83694 10.8139 3.96957 11.2196 4.09813C11.5668 4.20791 11.8948 4.31188 12.2263 4.31188C12.4739 4.30997 12.4943 4.25269 12.495 4.25029C12.5224 4.16048 12.2749 3.93588 11.7592 3.58226C11.6745 3.52401 11.6184 3.48572 11.5927 3.46263C10.9396 2.87429 10.8517 2.66922 10.9209 2.5426C11.0117 2.37554 11.3703 2.40876 12.3425 2.67235C12.383 2.68366 12.423 2.69401 12.4628 2.70341C12.0984 2.39985 11.7056 2.13507 11.292 1.91407C11.2918 1.91407 11.2917 1.91385 11.2916 1.91385C9.86002 1.13701 8.20159 0.898225 6.60355 1.23454Z" fill="#131414"/>
<path d="M7.65658 14.3806C7.65396 14.3806 7.65118 14.3806 7.64855 14.3801C6.78783 14.2799 5.94952 14.014 5.15708 13.5898L5.11724 13.5677C5.07668 13.5453 5.03421 13.5217 4.9958 13.4943C4.97811 13.4817 4.96727 13.4618 4.96655 13.4401C4.96571 13.4184 4.97511 13.3975 4.99171 13.3838C5.36058 13.0773 6.16149 12.8799 6.70708 12.9637C6.93143 12.9976 7.08502 13.0761 7.16324 13.1967C7.44574 13.6276 7.62893 13.9853 7.72339 14.2901C7.73039 14.3127 7.72546 14.3373 7.71039 14.3553C7.69702 14.3714 7.67718 14.3806 7.65658 14.3806ZM5.16052 13.4319C5.16858 13.4365 5.17664 13.4408 5.18458 13.4452L5.22455 13.4676C5.96621 13.8645 6.74999 14.1202 7.55474 14.2278C7.45665 13.9594 7.28599 13.639 7.04608 13.2731C6.99121 13.1883 6.86664 13.1293 6.68596 13.1019C6.22008 13.0304 5.52739 13.1857 5.16052 13.4319ZM11.5695 13.7239C11.5563 13.7239 11.5431 13.7203 11.5315 13.7126C11.1991 13.4969 10.8227 13.1645 10.864 12.5039C10.8679 12.4319 10.9024 12.3699 10.9631 12.3248C11.2643 12.1007 12.2097 12.3258 12.2497 12.3354C12.4035 12.3763 12.7215 12.4575 13.1419 12.5446C13.1678 12.5499 13.1885 12.5694 13.1952 12.5952C13.2021 12.6207 13.1938 12.6479 13.1739 12.6654C12.6963 13.0869 12.1669 13.4406 11.6001 13.7169C11.5905 13.7218 11.58 13.7239 11.5695 13.7239ZM11.4102 12.3653C11.2507 12.3653 11.1162 12.385 11.0464 12.437C11.0185 12.4577 11.0051 12.4808 11.0035 12.5121C10.9751 12.9664 11.1462 13.2858 11.5747 13.5737C12.0751 13.326 12.5456 13.0167 12.9755 12.6522C12.6203 12.5757 12.3517 12.5073 12.2154 12.4707C11.9962 12.418 11.6701 12.3653 11.4102 12.3653ZM4.54802 10.096C4.48002 10.096 4.40768 10.0866 4.33377 10.0673C4.14683 10.0158 3.6878 9.69929 3.28264 9.41982C3.05433 9.26213 2.83861 9.11335 2.73174 9.05488C2.29964 8.82066 2.06508 8.63457 1.85805 8.47041C1.7413 8.37772 1.64046 8.29779 1.51924 8.22101C1.50108 8.20972 1.48927 8.19044 1.48711 8.16926C1.44208 7.73379 1.43258 7.31616 1.45896 6.92738C1.46027 6.90741 1.47024 6.88888 1.48627 6.8766C1.50227 6.86432 1.52308 6.85997 1.54258 6.86382C1.84155 6.92447 2.24033 7.02007 2.4423 7.12935L2.6728 7.25547C3.09011 7.4851 3.31999 7.61147 3.91108 7.79491C4.33114 7.92685 4.60149 8.18585 4.56861 8.42441C4.55489 8.52457 4.46077 8.75901 3.88555 8.77682C3.79843 8.78066 3.77961 8.79847 3.77952 8.79847C3.78543 8.86707 4.13349 9.11601 4.31414 9.18701C5.03508 9.47251 4.99839 9.77701 4.96999 9.86369C4.92199 10.01 4.75514 10.096 4.54802 10.096ZM1.62264 8.1216C1.73808 8.19669 1.8388 8.27663 1.94499 8.36088C2.14743 8.52169 2.37696 8.70366 2.79858 8.9321C2.91221 8.99422 3.12068 9.13816 3.36211 9.30476C3.73836 9.56426 4.20668 9.88754 4.37002 9.93232C4.61399 9.99682 4.8033 9.92413 4.83727 9.82013C4.87711 9.69857 4.71499 9.49588 4.26289 9.31701C4.19827 9.29151 3.60789 8.98938 3.64474 8.76891C3.65833 8.68754 3.73768 8.64322 3.88043 8.63722C4.20152 8.62735 4.41193 8.53854 4.43024 8.40541C4.44949 8.26557 4.25946 8.05085 3.86949 7.92832C3.26502 7.74079 3.0308 7.61201 2.60558 7.37779L2.3758 7.25213C2.23955 7.17847 1.96343 7.09566 1.59358 7.01694C1.57461 7.36476 1.58436 7.73569 1.62264 8.1216ZM12.8553 9.35672C12.7122 9.35672 12.6061 9.31676 12.53 9.26813C12.3333 9.14247 12.2596 8.90779 12.2737 8.7311C12.2842 8.60016 12.3384 8.50432 12.4221 8.46822C12.8681 8.26769 13.1004 8.13266 13.1117 8.06744C13.1145 8.05154 13.0734 8.01182 13.0435 7.98294C12.976 7.91794 12.8834 7.82863 12.8628 7.68254C12.842 7.53354 12.8771 7.40691 12.9675 7.30654C13.241 7.00226 13.9593 7.02632 14.389 7.03957C14.463 7.04219 14.5289 7.04294 14.5776 7.04416C14.6941 7.04416 14.8174 7.04416 14.9406 7.03716C14.9806 7.03716 15.0092 7.06194 15.0138 7.09807C15.058 7.44494 15.077 7.78704 15.0701 8.11463C15.0696 8.14497 15.0495 8.17144 15.0205 8.1801C14.8748 8.22366 14.7442 8.28676 14.6212 8.37291C14.4541 8.4916 14.3374 8.58257 14.2332 8.66394C14.037 8.81704 13.882 8.93813 13.5186 9.14491C13.2395 9.30257 13.0223 9.35672 12.8553 9.35672ZM14.0573 7.17266C13.6876 7.17266 13.2447 7.20707 13.0714 7.39991C13.0091 7.46926 12.9861 7.55541 13.0012 7.66329C13.0151 7.76147 13.0787 7.82313 13.1405 7.88232C13.2016 7.94132 13.2649 8.00244 13.2494 8.09126C13.2301 8.20272 13.1015 8.3161 12.4786 8.59607C12.4505 8.6081 12.4199 8.65794 12.4131 8.74219C12.4023 8.87747 12.4575 9.0561 12.6052 9.15047C12.7379 9.23497 12.992 9.28213 13.4497 9.02335C13.8039 8.82163 13.9555 8.70344 14.1471 8.55394C14.2527 8.47138 14.3708 8.37919 14.5406 8.25857C14.6625 8.17335 14.7906 8.10885 14.9313 8.06166C14.9348 7.77641 14.9186 7.48032 14.8831 7.17966C14.7778 7.18376 14.6735 7.18376 14.5741 7.18376C14.5231 7.18376 14.4585 7.18182 14.3844 7.17941C14.2911 7.17629 14.1781 7.17266 14.0573 7.17266ZM10.6456 8.67332C9.49486 8.67354 7.32727 8.27057 6.83186 7.89651C5.79255 7.11054 5.9673 6.69604 6.04568 6.58769C6.20239 6.37057 6.58983 6.38285 6.92755 6.6161C7.80511 7.21935 8.48827 7.22441 9.21143 7.22969C9.76555 7.23379 10.3386 7.23813 11.0352 7.50291C11.3174 7.60979 11.4676 7.94751 11.4659 8.2111C11.4645 8.40754 11.3815 8.55485 11.2439 8.60491C11.1194 8.65238 10.9091 8.67332 10.6456 8.67332ZM6.40014 6.57351C6.29036 6.57351 6.20324 6.60816 6.15893 6.66957C6.03255 6.84432 6.2178 7.25694 6.91611 7.78482C7.48805 8.21716 10.5674 8.71351 11.1953 8.47401C11.3121 8.43141 11.3256 8.27516 11.3261 8.21016C11.3276 7.99376 11.2088 7.71813 10.9856 7.63341C10.3125 7.37776 9.75214 7.37344 9.21043 7.3696C8.46514 7.36404 7.76114 7.35876 6.84833 6.73119H6.84821C6.68986 6.62163 6.52939 6.57351 6.40014 6.57351ZM4.08233 5.71122C3.78805 5.71122 3.27293 5.58054 2.94624 5.34244C2.73427 5.18791 2.62343 5.00279 2.62571 4.80732C2.62861 4.56369 2.69589 4.32635 2.76089 4.09672C2.84661 3.79413 2.92758 3.50816 2.82746 3.28547C2.81602 3.25994 2.82071 3.23035 2.83961 3.20966C3.06602 2.96194 3.31311 2.72919 3.57383 2.51782C3.60139 2.49519 3.64146 2.49735 3.66674 2.52216C3.98439 2.83291 4.23183 3.24479 4.32849 3.62394C4.35968 3.74863 4.41818 3.86851 4.4698 3.97441C4.55621 4.15135 4.63083 4.30419 4.56971 4.44116C4.52843 4.5341 4.43405 4.5986 4.27289 4.64457C4.05611 4.70669 3.88496 4.62554 3.78289 4.57716C3.76568 4.56897 3.74427 4.55863 3.72802 4.55238C3.72561 4.57188 3.7243 4.60894 3.72946 4.67707C3.73993 4.82054 3.83874 4.90576 3.95321 5.00422C4.10258 5.13276 4.28864 5.29285 4.28864 5.62554C4.28864 5.65563 4.26939 5.68232 4.24086 5.69172C4.20174 5.70497 4.14746 5.71122 4.08233 5.71122ZM2.97249 3.27151C3.06649 3.53029 2.98321 3.82441 2.89533 4.13472C2.83286 4.35572 2.76824 4.58391 2.76536 4.80901C2.76368 4.95944 2.85227 5.10101 3.02858 5.22954C3.36858 5.47726 3.92802 5.59401 4.14674 5.56944C4.12855 5.33954 3.9988 5.22785 3.86196 5.11013C3.73546 5.00132 3.60477 4.88869 3.59005 4.68741C3.57983 4.55263 3.58558 4.46644 3.64518 4.42551C3.70414 4.38557 3.77155 4.41685 3.8428 4.45079C3.93764 4.49607 4.06777 4.55766 4.23471 4.51026C4.34964 4.47729 4.41946 4.43491 4.44208 4.38438C4.47661 4.30688 4.41524 4.18119 4.34411 4.03557C4.28946 3.92363 4.22761 3.79676 4.19296 3.6581C4.10689 3.3206 3.89193 2.95401 3.61305 2.6661C3.38689 2.85313 3.1718 3.05657 2.97249 3.27151ZM7.78996 4.4566C7.58799 4.4566 7.41299 4.4181 7.28624 4.31963C7.13977 4.20601 7.07164 4.02354 7.08368 3.77751C7.10039 3.40247 7.62649 3.32954 8.01068 3.27607C8.16389 3.25466 8.3223 3.23276 8.37202 3.19904C8.47974 3.12707 8.53199 3.03391 8.51233 2.94916C8.48696 2.83988 8.35164 2.75876 8.15055 2.73229C8.02814 2.71182 7.59064 2.71182 7.16743 2.71182C7.15514 2.71182 5.92952 2.68172 5.83418 2.30691C5.79664 2.15885 5.92686 2.00626 6.23271 1.83991L6.29299 1.80694C6.50086 1.69332 6.6803 1.5951 6.68199 1.52432C6.68283 1.48607 6.63299 1.40951 6.39036 1.26219C6.36618 1.24751 6.35327 1.21957 6.35774 1.19166C6.36221 1.16351 6.38302 1.1411 6.41071 1.13438C8.09121 0.738412 9.84811 0.971662 11.358 1.79082C11.8578 2.05779 12.3278 2.38782 12.7551 2.77151C12.7781 2.79222 12.7848 2.82566 12.7714 2.8536C12.7582 2.88151 12.7282 2.89716 12.6975 2.8926C12.5665 2.87188 12.4383 2.84397 12.3055 2.80716C11.2676 2.52551 11.0696 2.56257 11.0435 2.60929C11.0332 2.62854 11.0151 2.75444 11.6861 3.35866C11.7048 3.37551 11.7666 3.41785 11.8381 3.46697C12.384 3.84132 12.6884 4.09601 12.6287 4.29122C12.5854 4.43276 12.3786 4.45057 12.2268 4.45154C11.8731 4.45154 11.5352 4.34466 11.1773 4.23129C10.7817 4.1061 10.3727 3.9766 9.89946 3.9766C9.76186 3.9766 9.4948 4.05891 9.18561 4.15426C8.73249 4.29385 8.20461 4.4566 7.78996 4.4566ZM6.60355 1.23454C6.75893 1.34576 6.8238 1.43482 6.82174 1.52751C6.81827 1.67891 6.64577 1.77329 6.36005 1.92951L6.29961 1.96247C5.96633 2.14376 5.96283 2.24557 5.96971 2.27251C6.01918 2.46726 6.84196 2.57219 7.16743 2.57219C7.61599 2.57219 8.03968 2.57219 8.17111 2.5941C8.42999 2.62829 8.60933 2.74935 8.64846 2.91763C8.6818 3.06135 8.60764 3.20988 8.44999 3.31485C8.3738 3.3666 8.22202 3.38779 8.02993 3.41451C7.69436 3.46122 7.23483 3.52501 7.22327 3.78401C7.21339 3.98501 7.26205 4.12391 7.37193 4.20935C7.70183 4.46547 8.53546 4.20841 9.14449 4.02063C9.46452 3.92216 9.7409 3.83694 9.89952 3.83694C10.3943 3.83694 10.8139 3.96957 11.2196 4.09813C11.5668 4.20791 11.8948 4.31188 12.2263 4.31188C12.4739 4.30997 12.4943 4.25269 12.495 4.25029C12.5224 4.16047 12.2749 3.93588 11.7592 3.58226C11.6744 3.52401 11.6184 3.48572 11.5927 3.46263C10.9396 2.87429 10.8517 2.66922 10.9209 2.5426C11.0117 2.37554 11.3703 2.40876 12.3425 2.67235C12.383 2.68366 12.423 2.69401 12.4628 2.70341C12.0984 2.39985 11.7056 2.13507 11.292 1.91407C11.2918 1.91407 11.2917 1.91385 11.2916 1.91385C9.86002 1.13701 8.20158 0.898225 6.60355 1.23454Z" fill="#131414"/>
<path d="M10.7981 14.7294C10.6839 14.7294 10.5482 14.6952 10.3889 14.6266C10.3812 14.6233 10.3742 14.6184 10.3682 14.6127C7.85479 12.1958 6.81235 12.186 5.70863 12.1751C4.67388 12.1653 3.60398 12.1549 1.29341 10.1008C0.747821 9.61507 0.655759 9.15216 1.01188 8.68563C1.02454 8.669 1.04379 8.65891 1.0646 8.65819C1.08976 8.65938 1.10563 8.66616 1.11948 8.68132C2.2302 9.92247 3.50732 10.2828 4.9862 10.7C6.81026 11.2147 8.87773 11.7977 11.2143 14.1922C11.2287 14.2071 11.2359 14.2278 11.2337 14.2485C11.2113 14.4596 11.1371 14.6036 11.0133 14.676C10.9522 14.7116 10.8807 14.7294 10.7981 14.7294ZM10.4558 14.5031C10.6775 14.5968 10.8414 14.6151 10.9428 14.5551C11.0206 14.5096 11.0703 14.4124 11.0909 14.2658C8.78995 11.918 6.74945 11.3424 4.94835 10.8345C3.4742 10.4186 2.19763 10.0584 1.07382 8.83894C0.904134 9.0941 0.801321 9.47541 1.38638 9.99635C3.65782 12.0158 4.70101 12.0259 5.71001 12.0355C6.79107 12.0458 7.9091 12.0567 10.4558 14.5031ZM10.5697 11.5735C8.6221 11.5735 7.47829 10.4198 6.22379 9.15425C4.95204 7.87169 3.6371 6.54557 1.27407 6.20469C1.24554 6.2006 1.22241 6.17941 1.21591 6.15125C1.14757 5.85516 1.13529 5.54897 1.50526 5.31497C1.51741 5.30703 1.53185 5.30391 1.54607 5.30413C3.25954 5.39032 4.91798 6.6216 6.52191 7.81247C9.12582 9.74572 11.8184 11.7452 14.8768 9.01125C14.8906 8.99872 14.9087 8.99297 14.9273 8.99344C14.9459 8.99466 14.9632 9.00281 14.9756 9.01678C15.1417 9.20331 15.2162 9.3976 15.1971 9.59425C15.1725 9.84678 14.9913 10.1029 14.6582 10.3557C12.9521 11.2252 11.6396 11.5735 10.5697 11.5735ZM1.34182 6.0735C3.72173 6.43244 5.10323 7.82572 6.32298 9.05607C8.22804 10.9773 9.87363 12.6373 14.5843 10.2378C14.8744 10.0163 15.0374 9.79291 15.0581 9.5806C15.0717 9.44 15.0251 9.30303 14.9159 9.16319C11.7954 11.9014 9.07251 9.88006 6.43863 7.92469C4.85854 6.75141 3.22501 5.53866 1.5616 5.445C1.28804 5.62747 1.2937 5.84557 1.34182 6.0735ZM14.8466 6.58985C14.8367 6.58985 14.8266 6.58794 14.8171 6.58335C13.0839 5.77766 11.3837 5.98394 9.8836 6.16619C7.40129 6.46732 5.25763 6.72757 4.2761 2.07657C4.27345 2.06403 4.27429 2.05103 4.27851 2.039C4.41366 1.65363 4.67101 1.514 5.06685 1.60982C5.09563 1.61678 5.11695 1.64135 5.11982 1.67097C5.48501 5.39182 7.80329 5.30035 10.4879 5.19513C11.865 5.14072 13.2895 5.08463 14.5964 5.52444C14.6003 5.52563 14.6041 5.52735 14.6077 5.52925C14.8323 5.6525 14.9709 5.80441 15.0198 5.98085C15.0674 6.15272 15.0293 6.34603 14.9069 6.55544C14.894 6.57735 14.8707 6.58985 14.8466 6.58985ZM11.9846 5.85975C12.8969 5.85975 13.8491 5.99191 14.8166 6.42953C14.8952 6.27619 14.9182 6.13803 14.8851 6.01813C14.847 5.88066 14.7329 5.75863 14.5459 5.65488C13.2649 5.22544 11.8562 5.28082 10.4935 5.33472C7.86385 5.43775 5.38079 5.5355 4.98588 1.73497C4.69135 1.67622 4.52454 1.77516 4.41695 2.06716C5.37357 6.57347 7.35688 6.33203 9.86676 6.02753C10.5375 5.94616 11.248 5.85975 11.9846 5.85975Z" fill="#131414"/>
<path d="M11.4298 7.16976C11.1476 7.16976 10.9265 7.02245 10.9265 6.83445C10.9265 6.64717 11.143 6.5061 11.4298 6.5061C11.7166 6.5061 11.9329 6.64717 11.9329 6.83445C11.9329 7.02245 11.7119 7.16976 11.4298 7.16976ZM11.4298 6.64573C11.2327 6.64573 11.0664 6.73213 11.0664 6.83448C11.0664 6.92688 11.2156 7.03017 11.4298 7.03017C11.6471 7.03017 11.793 6.92885 11.793 6.83448C11.793 6.73045 11.63 6.64573 11.4298 6.64573Z" fill="#131414"/>
<path d="M12.8552 6.78534C12.675 6.78534 12.5337 6.6965 12.5337 6.58291C12.5337 6.46928 12.675 6.38022 12.8552 6.38022C13.0354 6.38022 13.1767 6.46928 13.1767 6.58291C13.1767 6.6965 13.0354 6.78534 12.8552 6.78534ZM12.8552 6.51981C12.7461 6.51981 12.6775 6.56506 12.6734 6.58359C12.6768 6.59756 12.738 6.64569 12.8552 6.64569C12.9724 6.64569 13.0336 6.59756 13.0369 6.58212C13.0328 6.56506 12.9643 6.51981 12.8552 6.51981Z" fill="#131414"/>
<path d="M9.89249 4.97557C9.57777 4.97557 9.34039 4.84366 9.34039 4.66841C9.34039 4.48907 9.57777 4.354 9.89249 4.354C10.2072 4.354 10.4446 4.48904 10.4446 4.66841C10.4446 4.84369 10.2072 4.97557 9.89249 4.97557ZM9.89249 4.49366C9.64949 4.49366 9.48024 4.58585 9.48024 4.66841C9.48024 4.73844 9.63708 4.83594 9.89249 4.83594C10.1479 4.83594 10.3047 4.73844 10.3047 4.66841C10.3047 4.58585 10.1355 4.49366 9.89249 4.49366Z" fill="#131414"/>
<path d="M13.1626 4.99679C12.9753 4.99679 12.8341 4.9036 12.8341 4.78013C12.8341 4.66073 12.9815 4.56348 13.1626 4.56348C13.3437 4.56348 13.491 4.66073 13.491 4.78013C13.491 4.9036 13.3499 4.99679 13.1626 4.99679ZM13.1626 4.7031C13.0491 4.7031 12.974 4.75798 12.974 4.78013C12.974 4.80732 13.0456 4.85716 13.1626 4.85716C13.2796 4.85716 13.3512 4.80732 13.3512 4.78013C13.3512 4.75798 13.2761 4.7031 13.1626 4.7031Z" fill="#131414"/>
<path d="M12.0865 8.078C11.9153 8.078 11.786 7.994 11.786 7.88253C11.786 7.77084 11.9153 7.68681 12.0865 7.68681C12.2578 7.68681 12.3869 7.77084 12.3869 7.88253C12.387 7.994 12.2578 8.078 12.0865 8.078ZM12.0865 7.82644C11.9854 7.82644 11.9275 7.86809 11.9259 7.88253C11.9275 7.89672 11.9855 7.93838 12.0865 7.93838C12.1876 7.93838 12.2455 7.89672 12.2471 7.88253C12.2455 7.86809 12.1879 7.82644 12.0865 7.82644Z" fill="#131414"/>
<path d="M11.3459 9.97179C10.9658 9.97179 10.668 9.79076 10.668 9.55942C10.668 9.32832 10.9658 9.14729 11.3459 9.14729C11.7298 9.14729 12.0307 9.32829 12.0307 9.55942C12.0307 9.79076 11.7298 9.97179 11.3459 9.97179ZM11.3459 9.28692C11.0287 9.28692 10.8079 9.43064 10.8079 9.55942C10.8079 9.68845 11.0287 9.83217 11.3459 9.83217C11.672 9.83217 11.8909 9.69111 11.8909 9.55942C11.8909 9.42776 11.672 9.28692 11.3459 9.28692Z" fill="#131414"/>
<path d="M5.23588 6.11828C5.13729 6.11828 5.03404 6.0865 4.9422 6.02657C4.81966 5.94932 4.73335 5.834 4.70641 5.71072C4.68666 5.62069 4.70123 5.53235 4.74707 5.46182C4.79401 5.3896 4.87079 5.33928 4.96338 5.31978C5.08566 5.29357 5.22263 5.32294 5.33963 5.39925C5.56135 5.5391 5.64754 5.78944 5.53582 5.96975C5.48948 6.04125 5.41498 6.0901 5.32507 6.10913C5.29604 6.11541 5.2662 6.11828 5.23588 6.11828ZM5.0522 5.45028C5.0316 5.45028 5.01138 5.45244 4.99213 5.45653C4.95254 5.46472 4.89826 5.48566 4.86432 5.53791C4.83173 5.58797 4.83473 5.64335 4.84291 5.68091C4.8617 5.7666 4.92704 5.85182 5.01766 5.90885C5.1066 5.9671 5.21035 5.99094 5.29629 5.97241C5.33385 5.96447 5.3856 5.9445 5.41785 5.89491C5.4867 5.78394 5.41832 5.61375 5.26463 5.51722C5.26429 5.517 5.26391 5.51675 5.26354 5.5165C5.19795 5.47366 5.12235 5.45028 5.0522 5.45028Z" fill="#131414"/>
<path d="M6.40581 3.52235C6.19468 3.52235 6.03546 3.42029 6.03546 3.28479C6.03546 3.15335 6.19468 3.05441 6.40581 3.05441C6.62099 3.05441 6.78324 3.15335 6.78324 3.28479C6.78324 3.42244 6.62449 3.52235 6.40581 3.52235ZM6.40581 3.19401C6.26496 3.19401 6.1753 3.25369 6.1753 3.28476C6.1753 3.32469 6.26512 3.38273 6.40581 3.38273C6.55084 3.38273 6.64337 3.32469 6.64337 3.28476C6.64337 3.25273 6.55324 3.19401 6.40581 3.19401Z" fill="#131414"/>
<path d="M5.40221 9.42053C5.30458 9.42053 5.18542 9.38128 5.07542 9.31075C4.9358 9.22506 4.83349 9.103 4.80942 8.993C4.79761 8.93884 4.80524 8.88925 4.83146 8.85C4.85627 8.80953 4.89958 8.78066 4.95542 8.76863C5.06242 8.74575 5.21252 8.78788 5.34671 8.87888C5.48764 8.966 5.58949 9.08566 5.61271 9.19203C5.62427 9.245 5.61655 9.29363 5.59042 9.33263C5.56624 9.37238 5.52374 9.401 5.46911 9.4135C5.44842 9.41834 5.42589 9.42053 5.40221 9.42053ZM5.01777 8.90225C5.00536 8.90225 4.9943 8.90319 4.98467 8.90537C4.96686 8.90922 4.95496 8.91597 4.94914 8.92534C4.94311 8.9345 4.94255 8.94725 4.94589 8.96313C4.95902 9.02284 5.02714 9.11719 5.14967 9.19253C5.26967 9.26931 5.37992 9.2905 5.43796 9.27725C5.45539 9.27316 5.46708 9.26666 5.47274 9.25728C5.48021 9.24597 5.47805 9.23031 5.47611 9.22191C5.46371 9.16484 5.39583 9.07313 5.27221 8.99709C5.27127 8.99659 5.27042 8.99588 5.26942 8.99541C5.1723 8.92922 5.07936 8.90225 5.01777 8.90225Z" fill="#131414"/>
<path d="M6.90362 10.9797C6.82899 10.9797 6.74593 10.9638 6.66049 10.9313C6.41809 10.8396 6.27728 10.6513 6.33299 10.4934C6.39896 10.3326 6.62968 10.283 6.8709 10.3748C7.11056 10.4655 7.2545 10.661 7.1984 10.8196C7.1554 10.9238 7.04421 10.9797 6.90362 10.9797ZM6.63606 10.4686C6.54709 10.4686 6.48199 10.4982 6.46343 10.5435C6.43996 10.6099 6.53468 10.7342 6.71006 10.8008C6.88821 10.8682 7.03924 10.8393 7.0679 10.7695C7.09234 10.7002 6.99281 10.5705 6.82128 10.5052C6.75399 10.4797 6.69059 10.4686 6.63606 10.4686Z" fill="#131414"/>
<path d="M9.85605 12.3166C9.79155 12.3166 9.71871 12.3022 9.64336 12.2726C9.5129 12.2216 9.41336 12.1404 9.37727 12.0554C9.35777 12.0097 9.35655 11.9638 9.37377 11.9224C9.42543 11.7986 9.61415 11.7639 9.81312 11.8422H9.81324C10.0093 11.9192 10.1259 12.0706 10.0846 12.1948C10.0514 12.2748 9.96583 12.3166 9.85605 12.3166ZM9.60874 11.9404C9.54902 11.9404 9.51027 11.958 9.5028 11.976C9.5003 11.9818 9.50136 11.9903 9.50583 12.0008C9.52305 12.0415 9.58802 12.101 9.69433 12.1426C9.83961 12.1997 9.94202 12.1744 9.95383 12.146C9.96249 12.1195 9.90483 12.0283 9.76233 11.9722C9.70308 11.9491 9.65074 11.9404 9.60874 11.9404Z" fill="#131414"/>
<path d="M13.0159 11.9072C12.82 11.9072 12.6665 11.7998 12.6665 11.6626C12.6665 11.5256 12.82 11.4183 13.0159 11.4183C13.2191 11.4183 13.3723 11.5232 13.3723 11.6626C13.3723 11.802 13.2191 11.9072 13.0159 11.9072ZM13.0159 11.5579C12.8959 11.5579 12.8064 11.6133 12.8064 11.6626C12.8064 11.7122 12.8959 11.7676 13.0159 11.7676C13.1435 11.7676 13.2324 11.7122 13.2324 11.6626C13.2324 11.6133 13.1399 11.5579 13.0159 11.5579Z" fill="#131414"/>
<path d="M5.10179 12.9199C5.02873 12.9199 4.94726 12.9045 4.86529 12.8742C4.6372 12.7894 4.50217 12.6221 4.55114 12.4847C4.60276 12.3511 4.8157 12.3152 5.04654 12.4006C5.04689 12.4006 5.04714 12.4009 5.04751 12.4009C5.27583 12.489 5.41029 12.6541 5.36011 12.7848C5.3442 12.8291 5.30883 12.8659 5.25839 12.8893C5.2147 12.9098 5.16101 12.9199 5.10179 12.9199ZM4.80617 12.4943C4.73623 12.4943 4.69026 12.5124 4.6822 12.5333C4.66667 12.5771 4.74864 12.6818 4.91389 12.7432C5.03989 12.7897 5.14811 12.7868 5.19926 12.7627C5.21045 12.7577 5.22454 12.7488 5.22898 12.7363C5.24257 12.7009 5.16242 12.5952 4.99776 12.5316C4.92451 12.5044 4.85867 12.4943 4.80617 12.4943Z" fill="#131414"/>
<path d="M8.49419 14.1498C8.382 14.1498 8.25563 14.1173 8.13335 14.0508C7.96907 13.9663 7.84329 13.831 7.79826 13.6895C7.77107 13.6035 7.77551 13.5222 7.81126 13.4538C7.84566 13.3881 7.90766 13.3404 7.99044 13.3159C8.13307 13.273 8.31904 13.3036 8.48682 13.3973C8.76679 13.5494 8.9111 13.8115 8.81541 13.994C8.75669 14.097 8.63694 14.1498 8.49419 14.1498ZM8.12757 13.4367C8.09266 13.4367 8.05982 13.4411 8.03032 13.4497C7.99832 13.4593 7.95594 13.4788 7.93501 13.5188C7.91226 13.5622 7.92057 13.6127 7.93151 13.6471C7.96497 13.7526 8.06725 13.8597 8.19857 13.9273C8.40354 14.0388 8.62922 14.0383 8.69291 13.9268C8.74322 13.8308 8.64635 13.6428 8.41982 13.5198C8.41957 13.5198 8.41932 13.5195 8.4191 13.5193C8.32269 13.4656 8.21822 13.4367 8.12757 13.4367Z" fill="#131414"/>
</g>
<defs>
<clipPath id="clip0_2_46">
<rect width="16" height="16" fill="white"/>
</clipPath>
</defs>
</svg>
