<svg width="19" height="19" viewBox="0 0 19 19" fill="none" xmlns="http://www.w3.org/2000/svg">
<g clip-path="url(#clip0_2_221)">
<path d="M9.5 0C4.26154 0 0 4.26154 0 9.5C0 14.7385 4.26154 19 9.5 19C14.7385 19 19 14.7385 19 9.5C19 4.26154 14.7385 0 9.5 0Z" fill="#F44336"/>
<path d="M12.9984 11.8797C13.3079 12.1893 13.3079 12.6896 12.9984 12.9992C12.844 13.1535 12.6413 13.2311 12.4387 13.2311C12.236 13.2311 12.0333 13.1535 11.879 12.9992L9.5 10.6194L7.12104 12.9992C6.96667 13.1535 6.764 13.2311 6.56133 13.2311C6.35867 13.2311 6.156 13.1535 6.00163 12.9992C5.69208 12.6896 5.69208 12.1893 6.00163 11.8797L8.38059 9.5L6.00163 7.12025C5.69208 6.81071 5.69208 6.31037 6.00163 6.00083C6.31117 5.69129 6.8115 5.69129 7.12104 6.00083L9.5 8.38058L11.879 6.00083C12.1885 5.69129 12.6888 5.69129 12.9984 6.00083C13.3079 6.31037 13.3079 6.81071 12.9984 7.12025L10.6194 9.5L12.9984 11.8797Z" fill="#FAFAFA"/>
<path d="M9.5 0C4.26154 0 0 4.26154 0 9.5C0 14.7385 4.26154 19 9.5 19V10.6194L7.12104 12.9992C6.96667 13.1535 6.764 13.2311 6.56133 13.2311C6.35867 13.2311 6.156 13.1535 6.00163 12.9992C5.69208 12.6896 5.69208 12.1893 6.00163 11.8798L8.38058 9.5L6.00163 7.12025C5.69208 6.81071 5.69208 6.31038 6.00163 6.00083C6.156 5.84646 6.35867 5.76888 6.56133 5.76888C6.764 5.76888 6.96588 5.84646 7.12104 6.00083L9.5 8.38058V0Z" fill="#D43A2F"/>
<path d="M6.56133 5.76888C6.35867 5.76888 6.156 5.84646 6.00163 6.00083C5.69208 6.31037 5.69208 6.81071 6.00163 7.12025L8.38059 9.5L6.00163 11.8797C5.69208 12.1893 5.69208 12.6896 6.00163 12.9992C6.156 13.1535 6.35867 13.2311 6.56133 13.2311C6.764 13.2311 6.96667 13.1535 7.12104 12.9992L9.5 10.6194V8.38058L7.12104 6.00083C6.96588 5.84646 6.76321 5.76888 6.56133 5.76888Z" fill="#DADADA"/>
</g>
<defs>
<clipPath id="clip0_2_221">
<rect width="19" height="19" fill="white"/>
</clipPath>
</defs>
</svg>
