<svg width="17" height="17" viewBox="0 0 17 17" fill="none" xmlns="http://www.w3.org/2000/svg">
<path d="M16 3.7163H1" stroke="black" stroke-width="0.5" stroke-miterlimit="10" stroke-linecap="round" stroke-linejoin="round"/>
<path d="M8.62142 1.45271H1V15.0946H6.19193" stroke="black" stroke-width="0.5" stroke-miterlimit="10" stroke-linecap="round" stroke-linejoin="round"/>
<path d="M10.8081 15.0946H16V1.90543C16 1.40536 15.5946 1 15.0946 1H9.40542C8.90535 1 8.49999 1.40536 8.49999 1.90543V2.81087H2.81085" stroke="black" stroke-width="0.5" stroke-miterlimit="10" stroke-linecap="round" stroke-linejoin="round"/>
<path d="M1 2.81087H1.90543" stroke="black" stroke-width="0.5" stroke-miterlimit="10" stroke-linecap="round" stroke-linejoin="round"/>
<path d="M14.3217 2.67829L14.962 2.03802" stroke="black" stroke-width="0.5" stroke-miterlimit="10" stroke-linecap="round" stroke-linejoin="round"/>
<path d="M14.3217 2.03802L14.962 2.67829" stroke="black" stroke-width="0.5" stroke-miterlimit="10" stroke-linecap="round" stroke-linejoin="round"/>
<path d="M3.71631 14.1891H5.49654" stroke="black" stroke-width="0.5" stroke-miterlimit="10" stroke-linecap="round" stroke-linejoin="round"/>
<path d="M11.5035 14.1891H15.0946V4.62173H1.90546V14.1891H2.81089" stroke="black" stroke-width="0.5" stroke-miterlimit="10" stroke-linecap="round" stroke-linejoin="round"/>
<path d="M6.4628 10.5372C6.4628 10.1188 6.36818 9.72245 6.1992 9.36843C5.99683 8.94451 5.43703 8.84669 5.10486 9.17886C4.89903 9.3847 4.85228 9.69641 4.97617 9.95983C5.05859 10.1351 5.10465 10.3308 5.10465 10.5372V12.6046C5.10465 14.4798 6.62481 16 8.50002 16C10.3752 16 11.8954 14.4798 11.8954 12.6046V10.5372C11.8954 10.1622 11.5914 9.85815 11.2163 9.85815C10.8413 9.85815 10.5372 10.1622 10.5372 10.5372" stroke="black" stroke-width="0.5" stroke-miterlimit="10" stroke-linecap="round" stroke-linejoin="round"/>
<path d="M9.17907 10.5372V9.40542C9.17907 9.03039 8.87503 8.72635 8.5 8.72635C8.12497 8.72635 7.82092 9.03039 7.82092 9.40542" stroke="black" stroke-width="0.5" stroke-miterlimit="10" stroke-linecap="round" stroke-linejoin="round"/>
<path d="M10.5372 10.5372V9.85815C10.5372 9.48312 10.2332 9.17908 9.85815 9.17908C9.48312 9.17908 9.17908 9.48312 9.17908 9.85815" stroke="black" stroke-width="0.5" stroke-miterlimit="10" stroke-linecap="round" stroke-linejoin="round"/>
<path d="M7.82088 10.5372V6.20624C7.82088 5.8312 7.51683 5.52716 7.1418 5.52716C6.76677 5.52716 6.46273 5.8312 6.46273 6.20624V11.669C6.46273 11.919 6.26003 12.1217 6.01001 12.1217" stroke="black" stroke-width="0.5" stroke-miterlimit="10" stroke-linecap="round" stroke-linejoin="round"/>
</svg>
