<svg width="15" height="15" viewBox="0 0 15 15" fill="none" xmlns="http://www.w3.org/2000/svg">
<g clip-path="url(#clip0_2_146)">
<path d="M8.2 15H6.8C6.32688 15 5.9275 14.6456 5.87125 14.175L5.72187 13.0025C5.42375 12.9056 5.13625 12.7863 4.86312 12.6469L3.92938 13.3725C3.55063 13.6656 3.0175 13.6319 2.68875 13.2938L1.70438 12.3094C1.36875 11.9837 1.335 11.4506 1.62812 11.0725L2.35375 10.1381C2.21375 9.865 2.09438 9.5775 1.99813 9.27938L0.823125 9.13C0.354375 9.0725 0 8.67313 0 8.2V6.8C0 6.32688 0.354375 5.9275 0.825 5.87125L1.9975 5.72187C2.09438 5.42375 2.21375 5.13625 2.35313 4.86312L1.62812 3.92938C1.33438 3.55063 1.36875 3.01688 1.7075 2.68813L2.69187 1.70375C3.0175 1.36813 3.55125 1.335 3.92875 1.6275L4.8625 2.35375C5.13563 2.21438 5.42312 2.095 5.72187 1.99813L5.87125 0.823125C5.9275 0.354375 6.32688 0 6.8 0H8.2C8.67313 0 9.0725 0.354375 9.12875 0.825L9.27812 1.9975C9.57687 2.09438 9.86437 2.21375 10.1375 2.35313L11.0713 1.6275C11.4506 1.33438 11.9831 1.36812 12.3119 1.70687L13.2963 2.69125C13.6319 3.01688 13.6656 3.55 13.3725 3.92812L12.6469 4.8625C12.7869 5.13563 12.9063 5.42313 13.0025 5.72125L14.1775 5.87062C14.6456 5.9275 15 6.32688 15 6.8V8.2C15 8.67313 14.6456 9.0725 14.175 9.12875L13.0025 9.27812C12.9056 9.57625 12.7863 9.86375 12.6469 10.1369L13.3725 11.0706C13.6663 11.4494 13.6319 11.9825 13.2931 12.3112L12.3088 13.2956C11.9831 13.6313 11.4494 13.6656 11.0719 13.3719L10.1375 12.6462C9.86437 12.7862 9.57687 12.9056 9.27875 13.0019L9.12938 14.1769C9.0725 14.6456 8.67313 15 8.2 15ZM4.83125 11.9625C4.88312 11.9625 4.93625 11.9756 4.98375 12.0019C5.32812 12.1944 5.70125 12.3494 6.0925 12.4619C6.2125 12.4962 6.30062 12.5988 6.31625 12.7225L6.49125 14.0975C6.51 14.2544 6.64563 14.375 6.8 14.375H8.2C8.35437 14.375 8.49 14.2544 8.50813 14.1006L8.68375 12.7231C8.69938 12.5994 8.7875 12.4969 8.9075 12.4625C9.29875 12.35 9.67187 12.195 10.0162 12.0025C10.1256 11.9412 10.2619 11.9519 10.36 12.0288L11.4538 12.8788C11.5794 12.9763 11.7556 12.9681 11.8631 12.8575L12.8538 11.8669C12.9669 11.7569 12.9756 11.5806 12.8781 11.4544L12.0281 10.3606C11.9513 10.2619 11.9406 10.1263 12.0019 10.0169C12.1944 9.6725 12.3494 9.29938 12.4619 8.90812C12.4962 8.78813 12.5988 8.7 12.7225 8.68438L14.0975 8.50937C14.2544 8.49 14.375 8.35437 14.375 8.2V6.8C14.375 6.64563 14.2544 6.51 14.1006 6.49188L12.7231 6.31625C12.5994 6.30062 12.4969 6.2125 12.4625 6.0925C12.35 5.70125 12.195 5.32812 12.0025 4.98375C11.9412 4.87437 11.9513 4.73875 12.0288 4.64L12.8788 3.54625C12.9769 3.42 12.9681 3.24375 12.8581 3.1375L11.8675 2.14687C11.7581 2.03312 11.5812 2.02437 11.455 2.1225L10.3612 2.9725C10.2619 3.04938 10.1263 3.06 10.0169 2.99875C9.67375 2.80625 9.30062 2.65187 8.90812 2.53875C8.78813 2.50437 8.7 2.40188 8.68438 2.27813L8.50937 0.903125C8.49 0.745625 8.35437 0.625 8.2 0.625H6.8C6.64563 0.625 6.51 0.745625 6.49188 0.899375L6.31625 2.27688C6.30062 2.40062 6.2125 2.50312 6.0925 2.53813C5.7 2.65062 5.32688 2.80562 4.98375 2.9975C4.87437 3.05938 4.73875 3.04813 4.63937 2.97188L3.54562 2.12188C3.41937 2.02375 3.24375 2.0325 3.13688 2.1425L2.14625 3.13375C2.03312 3.24375 2.02437 3.42 2.12188 3.54625L2.97188 4.64C3.04875 4.73875 3.05938 4.87437 2.99813 4.98375C2.805 5.32812 2.65062 5.70125 2.53813 6.0925C2.50375 6.2125 2.40125 6.30062 2.2775 6.31625L0.9025 6.49125C0.745625 6.51 0.625 6.64563 0.625 6.8V8.2C0.625 8.35437 0.745625 8.49 0.899375 8.50813L2.27688 8.68375C2.40062 8.69938 2.50312 8.7875 2.5375 8.9075C2.65 9.29875 2.805 9.67187 2.9975 10.0162C3.05875 10.1256 3.04875 10.2613 2.97125 10.36L2.12125 11.4538C2.02312 11.58 2.03188 11.7562 2.14188 11.8625L3.1325 12.8531C3.24187 12.9663 3.4175 12.975 3.545 12.8775L4.63875 12.0275C4.69562 11.985 4.76312 11.9625 4.83125 11.9625Z" fill="black"/>
<path d="M7.5 10.625C5.77688 10.625 4.375 9.22313 4.375 7.5C4.375 5.77688 5.77688 4.375 7.5 4.375C9.22313 4.375 10.625 5.77688 10.625 7.5C10.625 9.22313 9.22313 10.625 7.5 10.625ZM7.5 5C6.12125 5 5 6.12125 5 7.5C5 8.87875 6.12125 10 7.5 10C8.87875 10 10 8.87875 10 7.5C10 6.12125 8.87875 5 7.5 5Z" fill="black"/>
</g>
<defs>
<clipPath id="clip0_2_146">
<rect width="15" height="15" fill="white"/>
</clipPath>
</defs>
</svg>
